#!OML:ASF X:\für Bonn\!DataBase\2005_08_10_Bjorn_Final\c3d\bjorn.ASF
:FULLY-SPECIFIED
:DEGREES
417
root 16.6579 19.187 -1.5361 -74.1214 -85.1736 -280.048
lowerback -1.23434 0.718887 -0.280739
upperback -0.149088 0.946953 -3.13942
thorax 0.587929 0.461764 -3.04827
lowerneck 4.71492 0.233011 5.37892
upperneck 16.4545 0.987888 -9.64689
head 4.17205 0.123058 -3.89117
rclavicle -1.14301e-015 -5.96354e-016
rhumerus -25.6654 2.95689 -90.8997
rradius 34.8787
rwrist -1.26008
rhand -14.6959 14.9688
rfingers 7.12502
rthumb 11.458 -14.6981
lclavicle -1.14301e-015 -5.96354e-016
lhumerus -32.0362 -16.4631 88.8497
lradius 31.1597
lwrist -26.5434
lhand -20.3916 -13.781
lfingers 7.12502
lthumb 5.96177 16.1151
rfemur 1.44695 -0.267044 13.3622
rtibia 22.2283
rfoot -16.2112 18.6267
rtoes -0.340604
lfemur -21.9761 9.85015 -17.1923
ltibia 53.9481
lfoot -10.0583 0.288191
ltoes -21.8617
418
root 16.5993 19.2046 -1.5284 -74.8801 -85.2688 -279.353
lowerback -1.11929 0.741465 -0.212691
upperback -0.12365 0.976472 -3.04353
thorax 0.550468 0.477597 -2.98832
lowerneck 4.33469 0.303307 5.33814
upperneck 16.8846 1.10593 -9.80226
head 4.374 0.150365 -3.93879
rclavicle -1.07344e-014 9.54166e-015
rhumerus -25.2258 2.63592 -90.973
rradius 34.5847
rwrist -0.933058
rhand -14.8804 14.9658
rfingers 7.12502
rthumb 11.2801 -14.7109
lclavicle -1.07344e-014 9.54166e-015
lhumerus -31.7648 -16.8001 89.1529
lradius 30.8507
lwrist -26.5508
lhand -20.399 -13.5783
lfingers 7.12502
lthumb 5.95465 16.318
rfemur 1.73777 -0.280504 13.3814
rtibia 22.065
rfoot -15.5721 18.7978
rtoes -0.279358
lfemur -22.4363 10.0378 -17.2852
ltibia 53.4926
lfoot -10.4399 0.229334
ltoes -22.5268
419
root 16.5398 19.2241 -1.52087 -75.6407 -85.3631 -278.634
lowerback -0.989684 0.737983 -0.167716
upperback -0.116577 0.970413 -2.96347
thorax 0.484094 0.475029 -2.93273
lowerneck 3.94215 0.389878 5.37348
upperneck 17.3321 1.24822 -9.95834
head 4.58661 0.192409 -3.99964
rclavicle -7.00716e-015 -4.37326e-015
rhumerus -24.8076 2.38424 -91.1268
rradius 34.3077
rwrist -0.584411
rhand -15.0626 14.9527
rfingers 7.12502
rthumb 11.1044 -14.7336
lclavicle -7.00716e-015 -4.37326e-015
lhumerus -31.5312 -17.1976 89.3996
lradius 30.5847
lwrist -26.485
lhand -20.4147 -13.4472
lfingers 7.12502
lthumb 5.93943 16.4496
rfemur 2.0221 -0.31588 13.4023
rtibia 21.8817
rfoot -14.981 18.9302
rtoes -0.648238
lfemur -22.8978 10.2509 -17.3881
ltibia 52.9331
lfoot -10.8609 0.295107
ltoes -23.5693
420
root 16.4775 19.2461 -1.51302 -76.464 -85.4594 -277.876
lowerback -0.835477 0.73649 -0.111494
upperback -0.0880483 0.967054 -2.89961
thorax 0.426528 0.473921 -2.90035
lowerneck 3.53189 0.475745 5.38743
upperneck 17.716 1.37838 -10.0197
head 4.78328 0.234062 -4.02568
rclavicle 1.06971e-014 -3.97569e-015
rhumerus -24.3887 2.1201 -91.301
rradius 34.0568
rwrist -0.269288
rhand -15.1048 14.9517
rfingers 7.12502
rthumb 11.0637 -14.7367
lclavicle 1.06971e-014 -3.97569e-015
lhumerus -31.2847 -17.6554 89.6077
lradius 30.354
lwrist -26.3526
lhand -20.4622 -13.3616
lfingers 7.12502
lthumb 5.89354 16.5364
rfemur 2.33407 -0.368969 13.412
rtibia 21.7023
rfoot -14.3632 19.1042
rtoes -0.803729
lfemur -23.2912 10.4574 -17.4844
ltibia 52.2469
lfoot -11.2752 0.375887
ltoes -24.4472
